<svg width="262" height="38" viewBox="0 0 262 38" fill="none" xmlns="http://www.w3.org/2000/svg">
<path fill-rule="evenodd" clip-rule="evenodd" d="M38.7536 8.65319C32.1372 1.72188 19.8497 -1.1137 0 1.40662C5.98612 14.6391 12.9175 23.1461 21.4246 27.2417C22.685 21.8854 24.8902 17.1598 29.3013 13.6942C23.9451 9.91326 17.6437 7.39274 11.0274 5.50246C17.9587 7.07778 24.5749 9.28342 30.2462 13.064C32.7668 11.1737 35.6025 9.91325 38.438 8.96816L38.7536 8.65319Z" fill="white"/>
<path fill-rule="evenodd" clip-rule="evenodd" d="M23.0004 33.8593C23.3153 15.2704 36.2329 5.50351 67.7393 9.59906C57.3415 32.5994 43.479 42.0504 24.8902 35.4341C32.767 23.7765 43.794 17.4752 56.7125 13.6946C43.795 16.8453 31.8223 22.2012 23.0004 34.1742V33.8593Z" fill="white"/>
<path d="M104.36 23.64C104.36 24.3867 104.6 24.9333 105.08 25.28C105.56 25.6 106.227 25.76 107.08 25.76C107.48 25.76 107.907 25.72 108.36 25.64C108.813 25.5333 109.2 25.4133 109.52 25.28C109.76 25.5467 109.96 25.8533 110.12 26.2C110.28 26.5467 110.36 26.9467 110.36 27.4C110.36 28.3333 109.987 29.1067 109.24 29.72C108.52 30.3067 107.253 30.6 105.44 30.6C103.2 30.6 101.453 30.0933 100.2 29.08C98.9467 28.04 98.32 26.36 98.32 24.04V6.08C98.6133 6 99 5.92 99.48 5.84C99.96 5.73333 100.48 5.68 101.04 5.68C102.213 5.68 103.053 5.89333 103.56 6.32C104.093 6.72 104.36 7.46667 104.36 8.56V11.16H109.88C110.013 11.4267 110.147 11.7733 110.28 12.2C110.413 12.6 110.48 13.0267 110.48 13.48C110.48 14.3333 110.28 14.9467 109.88 15.32C109.507 15.6933 109.013 15.88 108.4 15.88H104.36V23.64Z" fill="white"/>
<path d="M120.184 29.96C119.917 30.04 119.544 30.1067 119.064 30.16C118.584 30.24 118.051 30.28 117.464 30.28C116.264 30.28 115.397 30.0933 114.864 29.72C114.357 29.32 114.104 28.56 114.104 27.44V11C114.371 10.92 114.744 10.84 115.224 10.76C115.704 10.68 116.237 10.64 116.824 10.64C118.024 10.64 118.877 10.84 119.384 11.24C119.917 11.64 120.184 12.4 120.184 13.52V29.96ZM113.744 5.24C113.744 4.33333 114.051 3.56 114.664 2.92C115.304 2.28 116.131 1.96 117.144 1.96C118.157 1.96 118.971 2.28 119.584 2.92C120.224 3.56 120.544 4.33333 120.544 5.24C120.544 6.17333 120.224 6.96 119.584 7.6C118.971 8.24 118.157 8.56 117.144 8.56C116.131 8.56 115.304 8.24 114.664 7.6C114.051 6.96 113.744 6.17333 113.744 5.24Z" fill="white"/>
<path d="M154.001 29.96C153.707 30.04 153.321 30.1067 152.841 30.16C152.361 30.24 151.827 30.28 151.241 30.28C150.041 30.28 149.174 30.0933 148.641 29.72C148.134 29.32 147.881 28.56 147.881 27.44V17.52C147.881 16.64 147.641 16 147.161 15.6C146.681 15.1733 146.027 14.96 145.201 14.96C144.667 14.96 144.161 15.0533 143.681 15.24C143.227 15.4267 142.814 15.6667 142.441 15.96C142.467 16.0933 142.481 16.2267 142.481 16.36C142.507 16.4933 142.521 16.6267 142.521 16.76V29.96C142.227 30.04 141.841 30.1067 141.361 30.16C140.881 30.24 140.347 30.28 139.761 30.28C138.561 30.28 137.694 30.0933 137.161 29.72C136.654 29.32 136.401 28.56 136.401 27.44V17.52C136.401 16.64 136.134 16 135.601 15.6C135.067 15.1733 134.414 14.96 133.641 14.96C133.081 14.96 132.574 15.0533 132.121 15.24C131.667 15.4 131.294 15.56 131.001 15.72V29.96C130.734 30.04 130.361 30.1067 129.881 30.16C129.401 30.24 128.867 30.28 128.281 30.28C127.081 30.28 126.214 30.0933 125.681 29.72C125.147 29.32 124.881 28.56 124.881 27.44V15.08C124.881 14.3867 125.027 13.8267 125.321 13.4C125.614 12.9733 126.027 12.5733 126.561 12.2C127.441 11.5867 128.521 11.0933 129.801 10.72C131.107 10.3467 132.467 10.16 133.881 10.16C135.001 10.16 136.054 10.32 137.041 10.64C138.054 10.9333 138.974 11.4 139.801 12.04C140.601 11.5067 141.507 11.0667 142.521 10.72C143.534 10.3467 144.734 10.16 146.121 10.16C147.161 10.16 148.147 10.2933 149.081 10.56C150.041 10.8 150.881 11.2133 151.601 11.8C152.321 12.36 152.894 13.1067 153.321 14.04C153.774 14.9467 154.001 16.0533 154.001 17.36V29.96Z" fill="white"/>
<path d="M168.153 30.6C167.46 30.6 166.82 30.5333 166.233 30.4C165.647 30.2933 165.113 30.1467 164.633 29.96V37.12C164.367 37.2 163.993 37.28 163.513 37.36C163.033 37.44 162.5 37.48 161.913 37.48C160.713 37.48 159.847 37.28 159.313 36.88C158.78 36.48 158.513 35.72 158.513 34.6V14.8C158.513 14.1067 158.66 13.5467 158.953 13.12C159.247 12.6667 159.66 12.2667 160.193 11.92C160.993 11.4133 162.02 11 163.273 10.68C164.527 10.3333 165.913 10.16 167.433 10.16C168.98 10.16 170.393 10.36 171.673 10.76C172.98 11.1333 174.1 11.7333 175.033 12.56C175.967 13.3867 176.687 14.44 177.193 15.72C177.727 17 177.993 18.52 177.993 20.28C177.993 21.96 177.74 23.4533 177.233 24.76C176.753 26.04 176.073 27.12 175.193 28C174.313 28.8533 173.273 29.5067 172.073 29.96C170.873 30.3867 169.567 30.6 168.153 30.6ZM167.233 25.76C168.673 25.76 169.78 25.3067 170.553 24.4C171.353 23.4933 171.753 22.12 171.753 20.28C171.753 18.3867 171.367 17.0267 170.593 16.2C169.847 15.3733 168.793 14.96 167.433 14.96C166.82 14.96 166.287 15.04 165.833 15.2C165.38 15.3333 164.967 15.4933 164.593 15.68V25.08C164.967 25.2933 165.367 25.4667 165.793 25.6C166.22 25.7067 166.7 25.76 167.233 25.76Z" fill="white"/>
<path d="M186.838 22.92C187.212 24.04 187.865 24.84 188.798 25.32C189.732 25.7733 190.812 26 192.038 26C193.158 26 194.212 25.8533 195.198 25.56C196.185 25.24 196.985 24.8933 197.598 24.52C197.998 24.7867 198.332 25.1333 198.598 25.56C198.865 25.9867 198.998 26.4533 198.998 26.96C198.998 27.5733 198.812 28.1067 198.438 28.56C198.065 29.0133 197.545 29.4 196.878 29.72C196.238 30.0133 195.465 30.2267 194.558 30.36C193.678 30.52 192.705 30.6 191.638 30.6C190.065 30.6 188.612 30.3867 187.278 29.96C185.945 29.5067 184.798 28.8533 183.838 28C182.878 27.12 182.118 26.0267 181.558 24.72C181.025 23.4133 180.758 21.88 180.758 20.12C180.758 18.4133 181.025 16.9333 181.558 15.68C182.118 14.4267 182.852 13.3867 183.758 12.56C184.692 11.7333 185.745 11.1333 186.918 10.76C188.118 10.36 189.345 10.16 190.598 10.16C191.958 10.16 193.198 10.3733 194.318 10.8C195.465 11.2 196.438 11.7733 197.238 12.52C198.065 13.2667 198.705 14.16 199.158 15.2C199.612 16.24 199.838 17.3733 199.838 18.6C199.838 19.4533 199.612 20.0933 199.158 20.52C198.705 20.9467 198.065 21.2267 197.238 21.36L186.838 22.92ZM190.638 14.68C189.492 14.68 188.532 15.04 187.758 15.76C187.012 16.4533 186.572 17.4667 186.438 18.8L194.078 17.56C194.025 16.8667 193.718 16.2133 193.158 15.6C192.598 14.9867 191.758 14.68 190.638 14.68Z" fill="white"/>
<path d="M211.357 26.12C211.944 26.12 212.517 26.0667 213.077 25.96C213.664 25.8267 214.104 25.6667 214.397 25.48V21.8L211.117 22.08C210.264 22.16 209.571 22.36 209.037 22.68C208.531 22.9733 208.277 23.4267 208.277 24.04C208.277 24.68 208.517 25.1867 208.997 25.56C209.477 25.9333 210.264 26.12 211.357 26.12ZM211.117 10.16C212.504 10.16 213.757 10.3067 214.877 10.6C216.024 10.8667 216.997 11.2933 217.797 11.88C218.597 12.4667 219.211 13.2133 219.637 14.12C220.091 15.0267 220.317 16.0933 220.317 17.32V26.36C220.317 27.0533 220.131 27.6133 219.757 28.04C219.411 28.44 218.984 28.7867 218.477 29.08C217.651 29.5867 216.637 29.9733 215.437 30.24C214.237 30.5067 212.877 30.64 211.357 30.64C208.611 30.64 206.424 30.12 204.797 29.08C203.171 28.0133 202.357 26.4 202.357 24.24C202.357 22.4 202.904 21 203.997 20.04C205.091 19.08 206.771 18.48 209.037 18.24L214.357 17.68V17.24C214.357 16.3867 214.011 15.76 213.317 15.36C212.624 14.96 211.624 14.76 210.317 14.76C209.304 14.76 208.304 14.88 207.317 15.12C206.357 15.36 205.491 15.64 204.717 15.96C204.397 15.7467 204.117 15.4267 203.877 15C203.664 14.5467 203.557 14.0667 203.557 13.56C203.557 12.3867 204.171 11.5467 205.397 11.04C206.171 10.7467 207.064 10.5333 208.077 10.4C209.117 10.24 210.131 10.16 211.117 10.16Z" fill="white"/>
<path d="M235.283 15C233.843 15 232.617 15.4667 231.603 16.4C230.59 17.3067 230.083 18.6533 230.083 20.44C230.083 22.2267 230.563 23.56 231.523 24.44C232.51 25.32 233.75 25.76 235.243 25.76C236.097 25.76 236.843 25.6533 237.483 25.44C238.15 25.2 238.71 24.96 239.163 24.72C239.617 25.0667 239.963 25.44 240.203 25.84C240.47 26.2133 240.603 26.68 240.603 27.24C240.603 28.2533 240.07 29.0667 239.003 29.68C237.937 30.2933 236.457 30.6 234.563 30.6C232.963 30.6 231.497 30.3867 230.163 29.96C228.857 29.5333 227.737 28.8933 226.803 28.04C225.87 27.1867 225.15 26.1333 224.643 24.88C224.137 23.6 223.883 22.12 223.883 20.44C223.883 18.7067 224.163 17.2 224.723 15.92C225.283 14.64 226.043 13.5733 227.003 12.72C227.963 11.8667 229.083 11.2267 230.363 10.8C231.643 10.3733 232.99 10.16 234.403 10.16C236.243 10.16 237.683 10.4933 238.723 11.16C239.79 11.8267 240.323 12.6667 240.323 13.68C240.323 14.16 240.203 14.6 239.963 15C239.75 15.4 239.483 15.7467 239.163 16.04C238.683 15.7733 238.11 15.5333 237.443 15.32C236.803 15.1067 236.083 15 235.283 15Z" fill="white"/>
<path d="M248.909 22.92C249.282 24.04 249.935 24.84 250.869 25.32C251.802 25.7733 252.882 26 254.109 26C255.229 26 256.282 25.8533 257.269 25.56C258.255 25.24 259.055 24.8933 259.669 24.52C260.069 24.7867 260.402 25.1333 260.669 25.56C260.935 25.9867 261.069 26.4533 261.069 26.96C261.069 27.5733 260.882 28.1067 260.509 28.56C260.135 29.0133 259.615 29.4 258.949 29.72C258.309 30.0133 257.535 30.2267 256.629 30.36C255.749 30.52 254.775 30.6 253.709 30.6C252.135 30.6 250.682 30.3867 249.349 29.96C248.015 29.5067 246.869 28.8533 245.909 28C244.949 27.12 244.189 26.0267 243.629 24.72C243.095 23.4133 242.829 21.88 242.829 20.12C242.829 18.4133 243.095 16.9333 243.629 15.68C244.189 14.4267 244.922 13.3867 245.829 12.56C246.762 11.7333 247.815 11.1333 248.989 10.76C250.189 10.36 251.415 10.16 252.669 10.16C254.029 10.16 255.269 10.3733 256.389 10.8C257.535 11.2 258.509 11.7733 259.309 12.52C260.135 13.2667 260.775 14.16 261.229 15.2C261.682 16.24 261.909 17.3733 261.909 18.6C261.909 19.4533 261.682 20.0933 261.229 20.52C260.775 20.9467 260.135 21.2267 259.309 21.36L248.909 22.92ZM252.709 14.68C251.562 14.68 250.602 15.04 249.829 15.76C249.082 16.4533 248.642 17.4667 248.509 18.8L256.149 17.56C256.095 16.8667 255.789 16.2133 255.229 15.6C254.669 14.9867 253.829 14.68 252.709 14.68Z" fill="white"/>
</svg>
