<svg width="22" height="22" viewBox="0 0 22 22" fill="none" xmlns="http://www.w3.org/2000/svg">
<path fill-rule="evenodd" clip-rule="evenodd" d="M11.001 0.333496C8.10406 0.333496 7.7405 0.346163 6.60271 0.397941C5.46714 0.449942 4.69203 0.629721 4.0138 0.893502C3.31223 1.16595 2.71712 1.5304 2.12422 2.12351C1.53088 2.71641 1.16643 3.31153 0.893097 4.01287C0.628649 4.69132 0.448648 5.46666 0.397536 6.60178C0.346646 7.73957 0.333313 8.10335 0.333313 11.0003C0.333313 13.8972 0.346202 14.2596 0.397758 15.3974C0.449981 16.533 0.629761 17.3081 0.893319 17.9863C1.16599 18.6879 1.53044 19.283 2.12355 19.8759C2.71623 20.4693 3.31134 20.8346 4.01246 21.107C4.69114 21.3708 5.46648 21.5506 6.60182 21.6026C7.73961 21.6544 8.10295 21.6671 10.9996 21.6671C13.8968 21.6671 14.2592 21.6544 15.397 21.6026C16.5326 21.5506 17.3086 21.3708 17.9873 21.107C18.6886 20.8346 19.2828 20.4693 19.8755 19.8759C20.4689 19.283 20.8333 18.6879 21.1066 17.9866C21.3689 17.3081 21.5489 16.5328 21.6022 15.3977C21.6533 14.2599 21.6666 13.8972 21.6666 11.0003C21.6666 8.10335 21.6533 7.7398 21.6022 6.60201C21.5489 5.46644 21.3689 4.69132 21.1066 4.01309C20.8333 3.31153 20.4689 2.71641 19.8755 2.12351C19.2822 1.53018 18.6888 1.16573 17.9866 0.893502C17.3066 0.629721 16.531 0.449942 15.3955 0.397941C14.2577 0.346163 13.8955 0.333496 10.9976 0.333496H11.001ZM10.044 2.25571C10.328 2.25526 10.6449 2.25571 11.0009 2.25571C13.849 2.25571 14.1865 2.26593 15.3112 2.31704C16.3512 2.3646 16.9157 2.53838 17.2917 2.68438C17.7894 2.87772 18.1443 3.10883 18.5175 3.48217C18.8908 3.8555 19.1219 4.21106 19.3157 4.70885C19.4617 5.0844 19.6357 5.64886 19.683 6.68887C19.7341 7.81332 19.7452 8.1511 19.7452 10.9978C19.7452 13.8445 19.7341 14.1823 19.683 15.3067C19.6355 16.3467 19.4617 16.9112 19.3157 17.2868C19.1224 17.7845 18.8908 18.139 18.5175 18.5121C18.1441 18.8854 17.7897 19.1166 17.2917 19.3099C16.9161 19.4566 16.3512 19.6299 15.3112 19.6774C14.1867 19.7286 13.849 19.7397 11.0009 19.7397C8.15268 19.7397 7.81512 19.7286 6.69067 19.6774C5.65066 19.6294 5.08621 19.4557 4.70998 19.3097C4.2122 19.1163 3.85664 18.8852 3.4833 18.5119C3.10996 18.1385 2.87885 17.7839 2.68507 17.2859C2.53907 16.9103 2.36507 16.3459 2.31773 15.3058C2.26662 14.1814 2.2564 13.8436 2.2564 10.9951C2.2564 8.14666 2.26662 7.81066 2.31773 6.6862C2.36529 5.64619 2.53907 5.08174 2.68507 4.70573C2.87841 4.20795 3.10996 3.85239 3.4833 3.47905C3.85664 3.10572 4.2122 2.8746 4.70998 2.68082C5.08598 2.53416 5.65066 2.36082 6.69067 2.31304C7.67468 2.2686 8.05601 2.25526 10.044 2.25304V2.25571ZM16.6948 4.02684C15.9881 4.02684 15.4148 4.59952 15.4148 5.30641C15.4148 6.01309 15.9881 6.58643 16.6948 6.58643C17.4015 6.58643 17.9748 6.01309 17.9748 5.30641C17.9748 4.59974 17.4015 4.02684 16.6948 4.02684ZM11.001 5.52241C7.97586 5.52241 5.52316 7.9751 5.52316 11.0002C5.52316 14.0254 7.97586 16.477 11.001 16.477C14.0261 16.477 16.4779 14.0254 16.4779 11.0002C16.4779 7.9751 14.0261 5.52241 11.001 5.52241ZM11.001 7.44465C12.9645 7.44465 14.5566 9.03645 14.5566 11.0002C14.5566 12.9638 12.9645 14.5558 11.001 14.5558C9.03716 14.5558 7.44536 12.9638 7.44536 11.0002C7.44536 9.03645 9.03716 7.44465 11.001 7.44465Z" fill="white"/>
</svg>
