<svg width="45" height="37" viewBox="0 0 45 37" fill="none" xmlns="http://www.w3.org/2000/svg">
<path d="M23.9062 5.29104C16.998 5.29104 11.1533 9.54368 9.16699 15.4065C12.1201 14.0027 15.4512 13.2183 18.9844 13.2183H26.7188C27.4922 13.2183 28.125 13.8128 28.125 14.5395C28.125 15.2662 27.4922 15.8607 26.7188 15.8607H25.3125H18.9844C17.5254 15.8607 16.1104 16.0176 14.748 16.3066C12.4717 16.7938 10.3535 17.6608 8.47266 18.8417C3.36621 22.0373 0 27.4956 0 33.697V35.0182C0 36.1164 0.94043 37 2.10938 37C3.27832 37 4.21875 36.1164 4.21875 35.0182V33.697C4.21875 29.6756 6.03809 26.0588 8.94727 23.5237C10.6875 29.7581 16.7256 34.3576 23.9062 34.3576H23.9941C35.6045 34.2998 45 23.5485 45 10.2951C45 6.7774 44.3408 3.4331 43.1455 0.419093C42.917 -0.150677 42.0293 -0.125904 41.7217 0.410836C40.0693 3.31749 36.7998 5.29104 33.0469 5.29104H23.9062Z" fill="#1C7C54"/>
</svg>
