<svg width="40" height="46" viewBox="0 0 40 46" fill="none" xmlns="http://www.w3.org/2000/svg">
<path d="M18.8036 0.524203L5.53571 15.0509C5.1875 15.424 5 15.9216 5 16.428C5 17.5653 5.91964 18.4804 7.0625 18.4804H9.28571L2.73214 25.0018C2.35714 25.375 2.14286 25.8903 2.14286 26.4234C2.14286 27.534 3.04464 28.4314 4.16071 28.4314H7.14286L0.482143 36.3833C0.169643 36.7564 0 37.2273 0 37.716C0 38.871 0.9375 39.8039 2.09821 39.8039H17.1429V42.6471C17.1429 44.2197 18.4196 45.4902 20 45.4902C21.5804 45.4902 22.8571 44.2197 22.8571 42.6471V39.8039H37.9018C39.0625 39.8039 40 38.871 40 37.716C40 37.2273 39.8304 36.7564 39.5179 36.3833L32.8571 28.4314H35.8393C36.9554 28.4314 37.8571 27.534 37.8571 26.4234C37.8571 25.8903 37.6429 25.375 37.2679 25.0018L30.7143 18.4804H32.9375C34.0714 18.4804 35 17.5653 35 16.428C35 15.9216 34.8125 15.424 34.4643 15.0509L21.1964 0.524203C20.8929 0.186581 20.4554 0 20 0C19.5446 0 19.1071 0.186581 18.8036 0.524203Z" fill="#1B512D"/>
</svg>
