<svg width="22" height="16" viewBox="0 0 22 16" fill="none" xmlns="http://www.w3.org/2000/svg">
<path fill-rule="evenodd" clip-rule="evenodd" d="M19.3347 1.12428C20.2526 1.37617 20.9756 2.11835 21.2209 3.06085C21.6667 4.76904 21.6667 8.33317 21.6667 8.33317C21.6667 8.33317 21.6667 11.8972 21.2209 13.6055C20.9756 14.548 20.2526 15.2902 19.3347 15.5422C17.6712 15.9998 11 15.9998 11 15.9998C11 15.9998 4.32889 15.9998 2.66525 15.5422C1.74731 15.2902 1.0244 14.548 0.779071 13.6055C0.333374 11.8972 0.333374 8.33317 0.333374 8.33317C0.333374 8.33317 0.333374 4.76904 0.779071 3.06085C1.0244 2.11835 1.74731 1.37617 2.66525 1.12428C4.32889 0.666504 11 0.666504 11 0.666504C11 0.666504 17.6712 0.666504 19.3347 1.12428ZM9.00006 5.3331V11.9998L14.3334 8.66656L9.00006 5.3331Z" fill="white"/>
</svg>
